<?xml version="1.0" encoding="UTF-8"?> <!-- Generator: Adobe Illustrator 24.2.1, SVG Export Plug-In . SVG Version: 6.00 Build 0) --> <svg xmlns="http://www.w3.org/2000/svg" xmlns:xlink="http://www.w3.org/1999/xlink" version="1.1" id="Layer_1" x="0px" y="0px" viewBox="0 0 300 300" style="enable-background:new 0 0 300 300;" xml:space="preserve"> <style type="text/css"> .st0{fill:#F86F62;} </style> <path class="st0" d="M284.1,105.3v125.2c0,19.7-16.1,35.8-35.8,35.8H51.6c-19.7,0-35.8-16.1-35.8-35.8V105.3 c0-19.7,16.1-35.8,35.8-35.8h31.3l7.1-19c3.5-9.2,14.4-16.8,24.2-16.8h71.5c9.8,0,20.7,7.5,24.2,16.8l7.1,19h31.3 C268.1,69.5,284.1,85.6,284.1,105.3z M212.6,167.9c0-34.5-28.1-62.6-62.6-62.6s-62.6,28.1-62.6,62.6s28.1,62.6,62.6,62.6 S212.6,202.4,212.6,167.9z M190.2,167.9c0,22.2-18,40.2-40.2,40.2s-40.2-18-40.2-40.2s18-40.2,40.2-40.2S190.2,145.7,190.2,167.9z"></path> </svg> 